<svg width="58" height="37" viewBox="0 0 58 37" fill="none" xmlns="http://www.w3.org/2000/svg">
<path opacity="0.1" d="M58 23.122C58.001 24.0973 57.8841 25.0692 57.6518 26.016C57.5737 26.335 57.4829 26.6474 57.3795 26.9532C57.253 27.3306 57.1064 27.7008 56.9403 28.0623C56.8566 28.2452 56.7681 28.4244 56.6749 28.5999C56.6764 29.6002 56.4723 30.5898 56.0756 31.5064C55.3584 33.1509 54.0795 34.4806 52.472 35.2531C51.4669 35.737 50.3686 35.9915 49.255 35.9985H11.0112C9.30961 36.0022 7.63745 35.5511 6.16469 34.6911L6.14204 34.6782C5.93226 34.5543 5.72774 34.4231 5.52847 34.2847C5.08013 33.9721 4.6589 33.6217 4.26934 33.2372C3.74207 32.7172 3.27745 32.1363 2.88513 31.5064C1.96369 30.03 1.47557 28.3203 1.47728 26.5755C0.544131 24.9233 0 22.9441 0 20.8173C0 18.1339 0.864701 15.6861 2.28535 13.8331C2.58153 13.446 2.90596 13.0817 3.25593 12.7434C3.60123 12.4086 3.97238 12.102 4.36586 11.8266C4.68066 11.606 5.00968 11.4068 5.35071 11.2303C5.49302 11.1572 5.63582 11.0882 5.78109 11.0241C5.90863 10.9669 6.03764 10.9138 6.16814 10.8636C6.32473 10.8036 6.48329 10.7485 6.64382 10.6981C6.80435 10.6477 6.96275 10.6037 7.11901 10.5659C7.34881 10.5093 7.58255 10.4632 7.82023 10.4278C8.0172 10.3985 8.21417 10.3781 8.41114 10.3627C8.56773 10.3508 8.7258 10.3443 8.88486 10.3423H8.97103C9.14633 10.3423 9.32065 10.3493 9.49349 10.3612C9.51171 10.3244 9.53141 10.2871 9.54963 10.2509C9.61857 10.1182 9.68997 9.98602 9.76187 9.85682C9.76171 9.85567 9.76171 9.8545 9.76187 9.85334C9.77418 9.83048 9.78649 9.80812 9.79929 9.78626C9.8574 9.68042 9.91797 9.57557 9.98001 9.47171C10.0086 9.42202 10.0366 9.37531 10.0657 9.3286C10.0718 9.31699 10.0786 9.30571 10.0859 9.29481C10.1154 9.24512 10.1455 9.19543 10.176 9.14574C10.328 8.90059 10.4861 8.65975 10.6502 8.42322L10.6921 8.3626C10.7177 8.32583 10.7413 8.29005 10.7699 8.25328C10.8378 8.15737 10.9077 8.06097 10.9782 7.96656C11.0274 7.89898 11.0766 7.83189 11.1298 7.76779C11.2579 7.60215 11.3892 7.43651 11.5238 7.27088C11.6584 7.10524 11.7982 6.94175 11.9433 6.78042C11.963 6.75806 11.9827 6.7362 12.0034 6.71433L12.2137 6.48277C12.224 6.47184 12.2329 6.4619 12.2427 6.45196C12.2678 6.42463 12.292 6.3973 12.319 6.37096C12.4318 6.25021 12.5475 6.13195 12.6637 6.01418C13.2552 5.41974 13.8852 4.86578 14.5497 4.35597C14.5758 4.3351 14.6024 4.31523 14.6285 4.29535C14.7536 4.20044 14.8806 4.10652 15.0077 4.0141C15.7065 3.50821 16.437 3.04844 17.1946 2.63764C17.2468 2.60733 17.2999 2.57901 17.3536 2.55118C18.0328 2.18859 18.7313 1.86411 19.4459 1.57922C19.8354 1.42368 20.2338 1.27759 20.6346 1.14392C20.9015 1.05547 21.1694 0.971489 21.4408 0.892479C21.8649 0.769244 22.292 0.658764 22.722 0.561037C23.989 0.274161 25.2779 0.0969468 26.5748 0.0313257C26.9687 0.0111179 27.3671 0.000682803 27.7699 2.02495e-05C29.7135 -0.00257633 31.6496 0.244555 33.5313 0.735454C33.5508 0.765124 33.5774 0.789312 33.6086 0.805742C33.6399 0.822172 33.6748 0.830303 33.7101 0.829371H33.8755C33.9474 0.849247 34.0188 0.869124 34.0907 0.889994C34.4922 1.0066 34.8879 1.13398 35.2779 1.27212L35.3764 1.3079C36.339 1.6533 37.2756 2.06848 38.1788 2.55019C38.993 2.98337 39.777 3.47215 40.5252 4.0131C40.6405 4.09659 40.7541 4.18073 40.866 4.26554C41.0019 4.17775 41.1401 4.0936 41.2806 4.0131C41.8232 3.70126 42.3995 3.45333 42.9982 3.27419C44.2499 2.90042 45.5742 2.84815 46.851 3.12214C48.4883 3.47246 49.9705 4.34206 51.1676 5.57888C51.655 6.08493 52.0889 6.64083 52.4622 7.23758C52.4892 7.28032 52.5163 7.32355 52.5424 7.36728C52.8633 7.89545 53.139 8.45018 53.3667 9.02548C53.3751 9.04685 53.3835 9.06673 53.3909 9.0876C53.6011 9.62631 53.7707 10.1803 53.8981 10.7448C53.904 10.7736 53.9109 10.802 53.9168 10.8308C54.036 11.3771 54.1169 11.9312 54.1591 12.489C54.1591 12.5089 54.1591 12.5292 54.163 12.5501C54.1837 12.8386 54.1942 13.1302 54.1945 13.4247C54.1945 13.688 54.1857 13.9494 54.1694 14.2088C54.1694 14.2371 54.1655 14.2664 54.163 14.2958C54.1586 14.3708 54.1522 14.4448 54.1458 14.5204C54.5219 14.8265 54.8738 15.1616 55.1986 15.5226C55.342 15.6807 55.4809 15.8446 55.6152 16.0146C56.0241 16.5318 56.3836 17.0871 56.6887 17.6728C57.5214 19.2589 58 21.1249 58 23.122Z" fill="white"/>
<path opacity="0.1" d="M52.4359 35.0711C52.4359 35.4105 51.2772 35.7285 49.2553 36.0018H11.0114C9.30991 36.0055 7.63775 35.5544 6.16499 34.6944L6.14233 34.6815C6.7234 34.4679 7.77227 34.2686 9.19981 34.0887L9.26383 34.0808C9.90398 34.0018 10.6195 33.9267 11.4015 33.8557C11.4211 33.8557 11.4413 33.8527 11.461 33.8502C12.0815 33.7945 12.7415 33.7424 13.4411 33.6937C13.4632 33.6937 13.4849 33.6897 13.5071 33.6887C13.7769 33.6691 14.0523 33.6506 14.3334 33.633L14.4417 33.6261C16.4877 33.4979 18.8135 33.3955 21.3357 33.3279H21.3386C21.6919 33.318 22.0489 33.3092 22.4097 33.3016C22.8108 33.292 23.2169 33.2835 23.6279 33.2763C23.9416 33.2693 24.2592 33.2643 24.5778 33.2594H24.5852C26.0226 33.2375 27.5077 33.2266 29.0264 33.2266C32.7816 33.2266 36.331 33.2956 39.4762 33.4199H39.485C39.9686 33.4387 40.4433 33.4596 40.9062 33.481L41.3001 33.4999C41.8224 33.525 42.3313 33.552 42.8267 33.5809C48.6521 33.9153 52.4359 34.4584 52.4359 35.0711Z" fill="white"/>
<g opacity="0.2">
<path opacity="0.2" d="M33.4999 32.993C33.4983 33.0466 33.4922 33.1 33.4816 33.1526C33.1389 33.0976 32.7942 33.0479 32.4475 33.0035C32.4475 32.9896 32.4475 32.9752 32.4475 32.9607C32.4507 32.8117 32.4932 32.6663 32.5706 32.5394C32.6721 32.3774 32.8262 32.276 32.9961 32.2815C33.166 32.2869 33.3132 32.3977 33.4043 32.5652C33.4732 32.6967 33.5062 32.8444 33.4999 32.993Z" fill="white"/>
<path opacity="0.2" d="M33.528 32.1464C33.54 31.7621 33.314 31.443 33.0231 31.4337C32.7322 31.4245 32.4867 31.7285 32.4747 32.1128C32.4626 32.4971 32.6887 32.8161 32.9795 32.8254C33.2704 32.8347 33.5159 32.5306 33.528 32.1464Z" fill="white"/>
<path opacity="0.2" d="M33.5548 31.2948C33.5668 30.9105 33.3408 30.5914 33.05 30.5822C32.7591 30.5729 32.5136 30.8769 32.5015 31.2612C32.4895 31.6455 32.7155 31.9646 33.0064 31.9738C33.2972 31.9831 33.5428 31.6791 33.5548 31.2948Z" fill="white"/>
<path opacity="0.2" d="M33.5812 30.4432C33.5932 30.0589 33.3672 29.7399 33.0763 29.7306C32.7855 29.7213 32.5399 30.0253 32.5279 30.4096C32.5159 30.7939 32.7419 31.113 33.0327 31.1223C33.3236 31.1315 33.5691 30.8275 33.5812 30.4432Z" fill="white"/>
<path opacity="0.2" d="M33.6075 29.5917C33.6196 29.2074 33.3935 28.8883 33.1027 28.879C32.8118 28.8698 32.5663 29.1738 32.5543 29.5581C32.5422 29.9424 32.7683 30.2614 33.0591 30.2707C33.35 30.28 33.5955 29.976 33.6075 29.5917Z" fill="white"/>
<path opacity="0.2" d="M31.2888 23.6899C31.2194 23.5951 31.1569 23.4955 31.1016 23.3917L32.4932 23.2064L30.9953 23.1701C30.8616 22.8502 30.794 22.506 30.7966 22.1588C30.7992 21.8116 30.872 21.4685 31.0105 21.1507L32.9862 22.2662L31.1765 20.8331C31.359 20.5352 31.6005 20.2784 31.8858 20.0789C32.1712 19.8793 32.4942 19.7413 32.8348 19.6733C33.1753 19.6054 33.5261 19.6091 33.8652 19.6841C34.2043 19.7592 34.5244 19.904 34.8056 20.1094C35.0867 20.3149 35.3229 20.5767 35.4993 20.8784C35.6756 21.1802 35.7885 21.5153 35.8307 21.863C35.873 22.2107 35.8437 22.5635 35.7448 22.8993C35.6459 23.2351 35.4794 23.5467 35.2558 23.8146C35.3637 23.962 35.4553 24.1208 35.5291 24.2882L33.7027 25.1727L35.6394 24.5848C35.7614 24.9909 35.781 25.4213 35.6966 25.837C35.6122 26.2527 35.4263 26.6406 35.1558 26.9656C35.437 27.3505 35.6052 27.8076 35.6411 28.2845C35.677 28.7613 35.5791 29.2388 35.3588 29.6622C35.1384 30.0856 34.8044 30.4379 34.395 30.6788C33.9856 30.9196 33.5172 31.0394 33.0435 31.0243C32.5698 31.0092 32.1099 30.86 31.7163 30.5935C31.3227 30.3271 31.0114 29.9543 30.8179 29.5177C30.6244 29.0811 30.5566 28.5984 30.6222 28.1248C30.6878 27.6511 30.8841 27.2057 31.1888 26.8393C30.8529 26.3793 30.6799 25.8186 30.6978 25.2474C30.7156 24.6762 30.9233 24.1277 31.2873 23.6899H31.2888Z" fill="white"/>
<path opacity="0.1" d="M35.7468 25.4085C35.7295 25.98 35.5213 26.5289 35.1558 26.9659C35.437 27.3508 35.6052 27.8079 35.6411 28.2848C35.6769 28.7616 35.5791 29.2391 35.3588 29.6625C35.1384 30.0859 34.8044 30.4382 34.395 30.6791C33.9856 30.9199 33.5172 31.0397 33.0435 31.0246C32.5698 31.0096 32.1099 30.8603 31.7163 30.5938C31.3227 30.3274 31.0114 29.9546 30.8179 29.518C30.6244 29.0814 30.5566 28.5987 30.6222 28.1251C30.6878 27.6514 30.8841 27.206 31.1888 26.8396C30.8653 26.3959 35.7556 25.1228 35.7468 25.4085Z" fill="white"/>
</g>
<g opacity="0.2">
<path opacity="0.2" d="M26.015 32.993C26.0134 33.0466 26.0073 33.1 25.9968 33.1526C25.654 33.0976 25.3093 33.0479 24.9626 33.0035C24.9626 32.9896 24.9626 32.9752 24.9626 32.9607C24.9659 32.8117 25.0083 32.6663 25.0858 32.5394C25.1872 32.3774 25.3413 32.276 25.5112 32.2815C25.6811 32.2869 25.8283 32.3977 25.9194 32.5652C25.9884 32.6967 26.0213 32.8444 26.015 32.993Z" fill="white"/>
<path opacity="0.2" d="M26.0429 32.1464C26.0549 31.7621 25.8289 31.443 25.538 31.4337C25.2471 31.4245 25.0016 31.7285 24.9896 32.1128C24.9775 32.4971 25.2036 32.8161 25.4944 32.8254C25.7853 32.8347 26.0308 32.5306 26.0429 32.1464Z" fill="white"/>
<path opacity="0.2" d="M26.0697 31.2948C26.0817 30.9105 25.8557 30.5914 25.5649 30.5822C25.274 30.5729 25.0285 30.8769 25.0164 31.2612C25.0044 31.6455 25.2304 31.9646 25.5213 31.9738C25.8121 31.9831 26.0577 31.6791 26.0697 31.2948Z" fill="white"/>
<path opacity="0.2" d="M26.0961 30.4432C26.1081 30.0589 25.8821 29.7399 25.5912 29.7306C25.3004 29.7213 25.0548 30.0253 25.0428 30.4096C25.0308 30.7939 25.2568 31.113 25.5476 31.1223C25.8385 31.1315 26.084 30.8275 26.0961 30.4432Z" fill="white"/>
<path opacity="0.2" d="M26.1224 29.5917C26.1345 29.2074 25.9084 28.8883 25.6176 28.879C25.3267 28.8698 25.0812 29.1738 25.0692 29.5581C25.0571 29.9424 25.2831 30.2614 25.574 30.2707C25.8649 30.28 26.1104 29.976 26.1224 29.5917Z" fill="white"/>
<path opacity="0.2" d="M23.8039 23.6899C23.7345 23.5951 23.672 23.4955 23.6168 23.3917L25.0084 23.2064L23.5104 23.1701C23.3767 22.8502 23.3091 22.506 23.3118 22.1588C23.3144 21.8116 23.3872 21.4685 23.5257 21.1507L25.5013 22.2662L23.6916 20.8331C23.8742 20.5352 24.1157 20.2784 24.401 20.0789C24.6863 19.8793 25.0093 19.7413 25.3499 19.6733C25.6905 19.6054 26.0413 19.6091 26.3803 19.6841C26.7194 19.7592 27.0396 19.904 27.3207 20.1094C27.6019 20.3149 27.838 20.5767 28.0144 20.8784C28.1908 21.1802 28.3036 21.5153 28.3459 21.863C28.3881 22.2107 28.3589 22.5635 28.26 22.8993C28.161 23.2351 27.9946 23.5467 27.771 23.8146C27.8788 23.962 27.9705 24.1208 28.0443 24.2882L26.2178 25.1727L28.1546 24.5848C28.2765 24.9909 28.2962 25.4213 28.2117 25.837C28.1273 26.2527 27.9414 26.6406 27.671 26.9656C27.9522 27.3505 28.1203 27.8076 28.1562 28.2845C28.1921 28.7613 28.0943 29.2388 27.8739 29.6622C27.6536 30.0856 27.3196 30.4379 26.9101 30.6788C26.5007 30.9196 26.0324 31.0394 25.5587 31.0243C25.085 31.0092 24.625 30.86 24.2315 30.5935C23.8379 30.3271 23.5266 29.9543 23.3331 29.5177C23.1396 29.0811 23.0717 28.5984 23.1373 28.1248C23.2029 27.6511 23.3993 27.2057 23.7039 26.8393C23.368 26.3793 23.1951 25.8186 23.2129 25.2474C23.2308 24.6762 23.4384 24.1277 23.8024 23.6899H23.8039Z" fill="white"/>
<path opacity="0.1" d="M28.2619 25.4085C28.2447 25.98 28.0364 26.5289 27.671 26.9659C27.9522 27.3508 28.1203 27.8079 28.1562 28.2848C28.1921 28.7616 28.0943 29.2391 27.8739 29.6625C27.6536 30.0859 27.3196 30.4382 26.9101 30.6791C26.5007 30.9199 26.0324 31.0397 25.5587 31.0246C25.085 31.0096 24.625 30.8603 24.2315 30.5938C23.8379 30.3274 23.5266 29.9546 23.3331 29.518C23.1396 29.0814 23.0717 28.5987 23.1373 28.1251C23.2029 27.6514 23.3993 27.206 23.7039 26.8396C23.3804 26.3959 28.2708 25.1228 28.2619 25.4085Z" fill="white"/>
</g>
<g opacity="0.2">
<path opacity="0.2" d="M46.4607 33.5418C46.457 33.6433 46.4449 33.7444 46.4248 33.8439C45.7649 33.7376 45.1003 33.6425 44.4309 33.5587C44.4309 33.5319 44.4309 33.5045 44.4309 33.4767C44.4372 33.1897 44.5191 32.9096 44.6683 32.6652C44.8652 32.3537 45.1607 32.1584 45.4872 32.1683C45.8137 32.1783 46.0978 32.3924 46.2751 32.7149C46.4088 32.969 46.4728 33.2544 46.4607 33.5418Z" fill="white"/>
<path opacity="0.2" d="M46.5141 31.9044C46.5373 31.1643 46.1019 30.5499 45.5417 30.532C44.9814 30.5142 44.5085 31.0996 44.4853 31.8397C44.4621 32.5797 44.8975 33.1942 45.4578 33.212C46.018 33.2299 46.491 32.6444 46.5141 31.9044Z" fill="white"/>
<path opacity="0.2" d="M46.5652 30.2677C46.5883 29.5276 46.153 28.9132 45.5927 28.8953C45.0325 28.8774 44.5595 29.4629 44.5363 30.203C44.5132 30.943 44.9486 31.5575 45.5088 31.5753C46.069 31.5932 46.542 31.0077 46.5652 30.2677Z" fill="white"/>
<path opacity="0.2" d="M46.6169 28.627C46.6401 27.887 46.2047 27.2725 45.6445 27.2547C45.0842 27.2368 44.6113 27.8223 44.5881 28.5623C44.5649 29.3024 45.0003 29.9168 45.5605 29.9347C46.1208 29.9526 46.5937 29.3671 46.6169 28.627Z" fill="white"/>
<path opacity="0.2" d="M46.6104 26.9161C46.6325 26.1757 46.1959 25.5617 45.6354 25.5447C45.0749 25.5277 44.6026 26.1142 44.5806 26.8546C44.5586 27.5951 44.9952 28.2091 45.5557 28.226C46.1162 28.243 46.5884 27.6565 46.6104 26.9161Z" fill="white"/>
<path opacity="0.2" d="M42.2035 15.6291C42.0706 15.4467 41.9503 15.2553 41.8435 15.0562L44.5223 14.6994L41.6392 14.6294C41.3816 14.0134 41.2513 13.3509 41.2562 12.6825C41.2611 12.014 41.4012 11.3535 41.6677 10.7415L45.4717 12.8887L41.9883 10.1298C42.3405 9.55755 42.8057 9.06463 43.355 8.68178C43.9043 8.29892 44.5258 8.03433 45.1808 7.90449C45.8359 7.77464 46.5104 7.78233 47.1624 7.92708C47.8143 8.07183 48.4298 8.35052 48.9703 8.7458C49.5109 9.14108 49.9649 9.64448 50.3042 10.2246C50.6436 10.8047 50.8608 11.4492 50.9425 12.1178C51.0242 12.7863 50.9686 13.4647 50.7791 14.1107C50.5895 14.7566 50.2702 15.3562 49.841 15.8721C50.0485 16.1561 50.225 16.4618 50.3674 16.784L46.851 18.4879L50.5792 17.3549C50.8141 18.1358 50.8524 18.9635 50.6905 19.763C50.5286 20.5626 50.1716 21.3087 49.6519 21.934C50.1931 22.6751 50.5167 23.555 50.5857 24.473C50.6548 25.391 50.4664 26.3101 50.0422 27.1251C49.6179 27.9402 48.975 28.6183 48.1868 29.082C47.3987 29.5457 46.4971 29.7762 45.5852 29.7472C44.6734 29.7182 43.788 29.4308 43.0304 28.9179C42.2727 28.4051 41.6734 27.6874 41.3009 26.847C40.9284 26.0066 40.7977 25.0774 40.9239 24.1656C41.0501 23.2538 41.428 22.3963 42.0144 21.691C41.368 20.8053 41.0353 19.7262 41.0696 18.6268C41.1039 17.5274 41.5032 16.4716 42.2035 15.6287V15.6291Z" fill="white"/>
<path opacity="0.1" d="M50.7865 18.9351C50.7541 20.0347 50.3551 21.0911 49.6539 21.9335C50.1951 22.6746 50.5187 23.5545 50.5877 24.4725C50.6567 25.3905 50.4683 26.3095 50.0441 27.1246C49.6199 27.9396 48.9769 28.6178 48.1888 29.0815C47.4006 29.5451 46.4991 29.7757 45.5872 29.7466C44.6753 29.7176 43.79 29.4303 43.0323 28.9174C42.2747 28.4045 41.6753 27.6869 41.3028 26.8465C40.9303 26.0061 40.7997 25.0769 40.9259 24.1651C41.052 23.2533 41.4299 22.3957 42.0163 21.6905C41.389 20.8353 50.8037 18.385 50.7865 18.9351Z" fill="white"/>
</g>
<path d="M7.77271 33.6258L8.28926 33.6243H9.01756L9.9384 18.529L19.0576 3.17283L18.6612 2.7435V1.65625L8.79892 18.1732L7.77271 33.6258Z" fill="white"/>
<path opacity="0.1" d="M8.34424 33.6269H9.01739L9.93822 18.5316L19.0575 3.17543L18.6611 2.74609L9.25474 18.3015L8.34424 33.6269Z" fill="white"/>
<path d="M6.25073 33.7547L29.8798 35.5793L29.9 35.5808L52.7678 34.1616L52.7851 34.1606V33.1862L27.5876 32.7196L6.56539 32.6992H6.41176L6.39501 32.8085L6.25073 33.7547Z" fill="white"/>
<path opacity="0.1" d="M6.25073 33.7547L29.8798 35.5793L29.9 35.5808L52.7678 34.1616L52.7851 34.1428V33.2066H52.7649L29.8798 33.9778L6.56539 32.6992H6.56195L6.52058 32.7265L6.39501 32.8085L6.25073 33.7547Z" fill="white"/>
<path opacity="0.1" d="M6.25073 33.7547L29.8798 35.5794V33.9778L6.52058 32.7266L6.39501 32.8086L6.25073 33.7547Z" fill="white"/>
<path d="M18.658 2.72342L29.0752 14.0064L28.7532 33.8531L29.6381 33.961L29.6529 33.963H30.5378L30.6436 14.8586L50.1501 21.4337L50.4791 33.1411L51.1911 33.2216L51.4324 33.2489L50.874 20.6218L30.4826 13.3976L19.3016 1.66797H18.658V2.72342Z" fill="white"/>
<path opacity="0.1" d="M30.5635 14.4961L30.6437 14.8613L50.1502 21.4365L50.4792 33.1438L51.1912 33.2243L50.6328 21.193L30.5635 14.4961Z" fill="white"/>
<path opacity="0.1" d="M18.658 2.72342L29.0753 14.0064L28.7532 33.8531L29.6381 33.961L29.8794 13.3569L18.658 1.66797V2.72342Z" fill="white"/>
<path d="M30.6016 22.4609L37.756 23.8825L37.7585 23.883L50.2893 26.3741L50.8629 26.142L50.861 26.1013L50.8236 25.2938L30.609 21.1719L30.6016 22.4609Z" fill="white"/>
<path opacity="0.1" d="M37.7583 23.8828L50.2891 26.3738L50.8628 26.1418L50.8608 26.101L37.7583 23.8828Z" fill="white"/>
<path d="M38.2375 17.418L38.4311 28.1682L38.531 33.6835L39.412 33.6537L39.9665 33.6348L39.7941 17.5735L39.412 17.4453L39.3283 17.418H38.2375Z" fill="white"/>
<path opacity="0.1" d="M38.2454 17.418V17.4205L38.431 28.1707L38.531 33.686L39.4119 33.6561V17.418H38.2454Z" fill="white"/>
<path d="M24.4383 20.1648C24.4899 20.1932 24.5393 20.2256 24.586 20.2617C24.6412 20.3105 24.6907 20.3653 24.7337 20.4252C24.945 20.701 25.14 21.0215 25.1193 21.3694C25.1197 21.42 25.1103 21.4702 25.0914 21.5171C25.0726 21.564 25.0447 21.6067 25.0095 21.6427C24.9223 21.7177 24.7973 21.7212 24.683 21.7212C24.5589 21.7212 24.4284 21.7212 24.3211 21.6566C24.2137 21.592 24.1241 21.4663 23.997 21.4692C23.9791 21.4722 23.9608 21.4722 23.9429 21.4692C23.899 21.4548 23.8902 21.3967 23.8616 21.3599C23.8124 21.2938 23.7085 21.3102 23.6312 21.3391C23.5539 21.3679 23.4682 21.4111 23.3918 21.3778C23.3475 21.3542 23.3113 21.3177 23.2879 21.273C23.1052 20.9748 23.0663 20.6165 23.0319 20.2702C23.0107 20.0595 22.8492 19.341 23.2948 19.5044C23.4918 19.576 23.676 19.7191 23.8552 19.824L24.4383 20.1648Z" fill="white"/>
<path d="M23.9981 20.2355C24.0379 20.2644 24.0861 20.279 24.1351 20.277C24.1841 20.275 24.2311 20.2566 24.2684 20.2246C24.3418 20.1577 24.3885 20.0662 24.3999 19.9672C24.4492 19.9518 24.4743 20.0168 24.5058 20.0566C24.561 20.1242 24.6732 20.1232 24.7235 20.1952C24.7584 20.2449 24.7505 20.314 24.7752 20.3702C24.8072 20.4427 24.8865 20.4805 24.9406 20.5391C24.9918 20.6032 25.0287 20.6776 25.049 20.7573L25.1297 21.0017C25.1684 21.1034 25.1932 21.2099 25.2036 21.3183C25.2087 21.3725 25.203 21.4271 25.187 21.4791C25.1709 21.531 25.1447 21.5792 25.11 21.6209C25.0017 21.7387 24.8239 21.7511 24.6668 21.7476C24.6144 21.7487 24.562 21.7425 24.5112 21.7292C24.3719 21.6855 24.2827 21.5439 24.2458 21.4013C24.2089 21.2586 24.2128 21.1091 24.1911 20.963C24.1677 20.8195 24.1264 20.6795 24.068 20.5466C24.0247 20.4432 23.9055 20.2892 23.9075 20.1793C23.943 20.1793 23.9686 20.2121 23.9981 20.2355Z" fill="white"/>
<path d="M24.1747 19.7343C24.1516 19.6637 24.1382 19.5903 24.1348 19.5161C24.1348 19.3671 24.2022 19.2269 24.2702 19.0938L23.7073 19.1708C23.6394 19.1802 23.5635 19.1941 23.5251 19.2513C23.5105 19.2796 23.5029 19.311 23.5029 19.343C23.5029 19.3749 23.5105 19.4063 23.5251 19.4346C23.5534 19.4913 23.5758 19.5508 23.5921 19.612C23.5934 19.6656 23.5995 19.719 23.6103 19.7715C23.6278 19.8101 23.6524 19.845 23.6827 19.8744C23.8437 20.0543 23.9644 20.2665 24.0845 20.4767C24.0811 20.4707 24.4238 20.2029 24.41 20.1154C24.4022 20.0657 24.3032 20.0061 24.2717 19.9584C24.2281 19.8891 24.1954 19.8136 24.1747 19.7343Z" fill="white"/>
<path d="M29.0006 17.793V18.2824L20.6949 19.9173L20.264 20.1806H18.7773V19.9049L26.9378 17.9152L29.0006 17.793Z" fill="white"/>
<path opacity="0.1" d="M29.0006 18.2812L20.6949 19.9161L20.264 20.1795H18.7773L26.9984 18.404L29.0006 18.2812Z" fill="white"/>
<path d="M22.332 31.6852C22.2395 31.5721 22.1117 31.4939 21.9696 31.4634C21.8274 31.4329 21.6792 31.4519 21.5491 31.5172C21.5212 31.5304 21.4967 31.5498 21.4772 31.5739C21.4279 31.6434 21.4594 31.7393 21.4639 31.8253C21.4752 32.035 21.3097 32.2054 21.161 32.352C21.0813 32.4305 21 32.5145 20.9641 32.6213C20.9281 32.7282 20.9547 32.8638 21.0512 32.9195C21.0933 32.9408 21.1392 32.9536 21.1861 32.9573C21.3435 32.9882 21.5049 32.9928 21.6638 32.9707C21.8209 32.9404 21.975 32.8504 22.043 32.7043C22.0561 32.6647 22.0778 32.6286 22.1065 32.5985C22.1932 32.5294 22.3261 32.6104 22.4246 32.5612C22.5059 32.5205 22.5093 32.4564 22.5103 32.3719C22.5133 32.1383 22.4788 31.874 22.332 31.6852Z" fill="white"/>
<path d="M23.5138 31.6757C23.5744 31.8367 23.5828 32.0121 23.5906 32.184C23.5951 32.2834 23.598 32.3897 23.5448 32.4737C23.4917 32.5577 23.3878 32.6019 23.2883 32.6228C23.0829 32.6655 22.8451 32.6253 22.7126 32.4608C22.6112 32.3351 22.59 32.1626 22.6087 31.9996C22.6245 31.866 22.658 31.7095 22.5629 31.6145C22.5383 31.5892 22.5063 31.5713 22.4836 31.544C22.4344 31.4834 22.4423 31.3919 22.4689 31.3174C22.5035 31.2461 22.5295 31.1709 22.5462 31.0933C22.5501 31.0565 23.2129 31.1191 23.274 31.1494C23.3572 31.1907 23.3444 31.2597 23.3695 31.3432C23.4045 31.4595 23.4715 31.5644 23.5138 31.6757Z" fill="white"/>
<path d="M23.6356 24.5403C23.7656 24.6253 23.8159 24.7923 23.836 24.9473C23.8917 25.3722 23.7942 25.8015 23.7868 26.2303C23.7799 26.8311 23.9523 27.4428 23.805 28.0247C23.7169 28.3725 23.7917 28.7701 23.709 29.1214C23.6844 29.2257 23.6391 29.3241 23.6154 29.4285C23.5662 29.6546 23.6179 29.8911 23.6873 30.1122C23.7095 30.1718 23.7236 30.2342 23.7292 30.2976C23.7258 30.3952 23.7013 30.4909 23.6573 30.5778L23.3618 31.283C23.3288 31.362 23.1988 31.3749 23.1156 31.3853C22.959 31.4042 22.7842 31.4176 22.6596 31.3197C22.535 31.2218 22.505 31.0578 22.4858 30.9048C22.449 30.611 22.4325 30.3149 22.4365 30.0188C22.442 29.9415 22.4351 29.8639 22.4164 29.7887C22.3893 29.7038 22.3297 29.6302 22.3134 29.5403C22.2928 29.424 22.3514 29.3097 22.373 29.1924C22.3879 29.0853 22.3862 28.9765 22.3681 28.8699C22.3489 28.7109 22.3267 28.5519 22.3016 28.3939C22.2662 28.1728 22.3169 27.9546 22.3509 27.733C22.3829 27.5248 22.342 27.3126 22.3016 27.1059C22.3051 27.2737 22.2844 27.4411 22.2401 27.6028C22.214 27.6818 22.1765 27.7573 22.1539 27.8378C22.0529 28.1991 22.2681 28.5782 22.2376 28.9524C22.2233 29.1273 22.1554 29.3003 22.1746 29.4727C22.1879 29.5989 22.246 29.7147 22.2859 29.8349C22.3257 29.9552 22.3464 30.0928 22.2859 30.2051C22.1258 30.5103 22.2455 30.9252 22.3888 31.2382C22.4179 31.2938 22.4432 31.3512 22.4646 31.4102C22.507 31.5513 22.4715 31.7028 22.4828 31.8499C22.4416 31.8567 22.3994 31.854 22.3593 31.8418C22.3193 31.8297 22.2826 31.8085 22.2519 31.7799C22.2302 31.757 22.2125 31.7302 22.1913 31.7063C22.1321 31.6494 22.0621 31.6053 21.9855 31.5766C21.9405 31.5512 21.8892 31.5393 21.8377 31.5423C21.7836 31.5576 21.7349 31.5881 21.6974 31.6303C21.6487 31.6735 21.597 31.7132 21.5428 31.7491C21.5197 31.767 21.4927 31.7791 21.464 31.7843C21.4496 31.7866 21.4348 31.7842 21.4218 31.7775C21.4088 31.7708 21.3983 31.7602 21.3916 31.7471C21.3885 31.7388 21.3867 31.7301 21.3862 31.7212C21.3679 31.5712 21.3582 31.4202 21.3571 31.269C21.3571 31.0092 21.0489 30.8303 21.01 30.5734C20.9789 30.3661 21.0366 30.155 21.0173 29.9463C21.008 29.8389 20.9784 29.7336 20.9804 29.6262C20.9804 29.5567 20.9962 29.4886 21.0016 29.4195C21.0061 29.3429 21.005 29.266 20.9981 29.1895L20.9829 28.9494C20.9681 28.7124 20.9519 28.4704 20.8593 28.2538C20.7495 28.0008 20.6845 27.7303 20.6672 27.4547C20.6574 27.2808 20.6638 27.1069 20.6441 26.9325C20.6264 26.7749 20.587 26.6184 20.5983 26.4604C20.6076 26.3382 20.6475 26.2199 20.6569 26.0976C20.6761 25.8626 20.5875 25.634 20.518 25.4089C20.4486 25.1838 20.3974 24.9344 20.4885 24.7172C20.5015 24.6816 20.5232 24.6498 20.5515 24.6248C20.5864 24.6015 20.6262 24.5865 20.6677 24.5811C21.5126 24.402 22.3786 24.3462 23.2392 24.4156C23.3795 24.4236 23.5157 24.4665 23.6356 24.5403Z" fill="white"/>
<path d="M20.8399 19.2601C21.2756 19.2601 21.6288 18.9037 21.6288 18.464C21.6288 18.0244 21.2756 17.668 20.8399 17.668C20.4042 17.668 20.051 18.0244 20.051 18.464C20.051 18.9037 20.4042 19.2601 20.8399 19.2601Z" fill="white"/>
<path d="M20.6874 19.4598C20.6987 19.5053 20.6987 19.553 20.6874 19.5985C20.675 19.6303 20.6575 19.6598 20.6357 19.6859C20.5593 19.7853 20.4748 19.8781 20.3831 19.9632C20.4298 20.0686 20.514 20.1524 20.6189 20.1983C20.7232 20.243 20.8325 20.2746 20.9444 20.2922C21.0003 20.307 21.0584 20.311 21.1158 20.3041C21.1687 20.2907 21.2187 20.2678 21.2635 20.2365L21.7018 19.9717C21.7679 19.9355 21.8292 19.8909 21.884 19.839C21.9644 19.7556 22.0099 19.6442 22.011 19.5279C22.0131 19.5071 22.0075 19.4862 21.9953 19.4693C21.9785 19.4545 21.9574 19.4456 21.9352 19.4439C21.7811 19.4097 21.6594 19.2834 21.5905 19.1403C21.5282 18.9936 21.4879 18.8384 21.4708 18.6797L21.0035 18.9281C20.9341 18.9654 20.8652 19.0027 20.7933 19.035C20.7475 19.0559 20.6549 19.0732 20.6224 19.1155C20.5603 19.1935 20.6711 19.3659 20.6874 19.4598Z" fill="white"/>
<path d="M20.3861 19.8158C20.3195 19.8708 20.2676 19.9417 20.2349 20.022C20.2044 20.1214 20.2349 20.2262 20.2625 20.3246C20.3917 20.744 20.4905 21.1723 20.5579 21.6062C20.5993 21.9043 20.6146 22.2069 20.6347 22.5086C20.6761 23.1237 20.7362 24.1046 20.8165 24.7158C21.1119 24.7293 21.4 24.6423 21.693 24.6105C22.2406 24.5519 22.8044 24.686 23.3407 24.5608C23.2107 24.0425 23.0807 23.1575 22.9507 22.6397C22.8931 22.4357 22.8533 22.2271 22.8315 22.0161C22.8202 21.8646 22.8271 21.7125 22.829 21.5599C22.8335 21.2618 22.8172 20.9636 22.801 20.6655C22.7823 20.3177 22.7635 19.9698 22.6818 19.6294C22.6761 19.5861 22.656 19.5459 22.6247 19.5156C22.5754 19.4794 22.5114 19.4923 22.4528 19.5002C22.2734 19.5232 22.0918 19.4798 21.9417 19.378C21.8767 19.3333 21.7895 19.2786 21.7289 19.3283C21.7031 19.3583 21.686 19.3949 21.6797 19.4341C21.6529 19.5044 21.6115 19.5682 21.5584 19.621C21.5052 19.6739 21.4415 19.7147 21.3714 19.7407C21.2311 19.792 21.0841 19.8225 20.9351 19.8312C20.8895 19.8411 20.842 19.8356 20.7997 19.8158C20.7298 19.7725 20.7249 19.617 20.6367 19.6066C20.5594 19.5976 20.4383 19.7656 20.3861 19.8158Z" fill="white"/>
<path d="M21.5511 21.0314C21.3694 20.856 21.2896 20.6016 21.1571 20.3855C21.0669 20.2401 20.9517 20.1122 20.8169 20.0078C20.7491 19.9626 20.6869 19.9094 20.6317 19.8493C20.5849 19.7911 20.5495 19.7136 20.4786 19.6913C20.4493 19.6848 20.4188 19.6857 20.3899 19.6937C20.361 19.7018 20.3345 19.7168 20.3126 19.7375C20.2692 19.7792 20.2281 19.8234 20.1895 19.8697C19.9807 20.0878 19.6138 20.1181 19.4484 20.3706C19.4037 20.4241 19.3734 20.4882 19.3602 20.5569C19.3126 20.9243 19.4068 21.2961 19.6232 21.5954C19.6651 21.6648 19.7295 21.7175 19.8054 21.7445C19.7951 21.8372 19.8073 21.931 19.8409 22.0178C19.932 22.3323 20.0441 22.6403 20.1762 22.9396C20.1446 23.0567 20.1225 23.1762 20.1102 23.2969C20.0758 23.6005 20.1078 23.9086 20.0753 24.2127C20.0487 24.4612 19.9768 24.7032 19.9743 24.9521C19.9743 24.9919 19.9778 25.0391 20.0117 25.0594C20.0298 25.0688 20.05 25.0731 20.0703 25.0719L20.676 25.0903C21.0276 25.1007 21.3827 25.1111 21.7289 25.0455C21.775 25.0386 21.8197 25.0244 21.8613 25.0033C21.9785 24.9372 22.0174 24.7881 22.0361 24.6555C22.0606 24.4834 22.0703 24.3095 22.0652 24.1357C22.1386 24.3697 22.2257 24.6117 22.4473 24.7131C22.5645 24.7668 22.6985 24.7628 22.827 24.7593C23.104 24.7469 23.3801 24.7182 23.6538 24.6733C23.6707 24.6755 23.6878 24.6736 23.7038 24.6678C23.7198 24.662 23.7342 24.6525 23.746 24.6401C23.7577 24.6277 23.7664 24.6127 23.7713 24.5963C23.7763 24.5799 23.7773 24.5625 23.7744 24.5456L23.7774 24.2743C23.7833 23.7232 23.6479 23.1965 23.5952 22.6479C23.5784 22.475 23.5799 22.3001 23.5381 22.1306C23.5208 22.0596 23.4957 21.99 23.4804 21.9184C23.4673 21.8484 23.4591 21.7775 23.4558 21.7063L23.4174 21.1597C23.3992 20.9067 23.3731 20.6627 23.3539 20.4103C23.3433 20.1645 23.308 19.9204 23.2485 19.6818C23.2057 19.5328 23.1165 19.3638 22.9624 19.3454C22.8802 19.336 22.8004 19.3722 22.7221 19.3976C22.5296 19.4587 22.3231 19.4579 22.1312 19.3951C22.0719 19.3715 22.0101 19.3548 21.947 19.3454C21.9153 19.3411 21.8829 19.3453 21.8533 19.3577C21.8237 19.3701 21.7979 19.3902 21.7786 19.416C21.7595 19.4548 21.7505 19.4979 21.7525 19.5412C21.7293 20.0376 21.6865 20.5489 21.5511 21.0314Z" fill="white"/>
<path d="M20.7591 21.0469C20.532 20.8054 20.2991 20.5594 20.0066 20.4059C19.8914 20.3453 19.7604 20.2995 19.6329 20.3224C19.5053 20.3453 19.3866 20.4571 19.3925 20.5877C19.3965 20.6687 19.4452 20.7403 19.4605 20.8198C19.4782 20.9093 19.4526 21.0047 19.4802 21.0911C19.5026 21.1481 19.5361 21.2 19.5787 21.2437L19.9273 21.6606C20.0751 21.8345 20.2228 22.0109 20.4129 22.1312C20.603 22.2514 20.8492 22.3076 21.058 22.2221C21.2065 22.1524 21.33 22.038 21.4115 21.8946C21.4982 21.7555 21.5593 21.6034 21.6405 21.4598C21.767 21.2304 21.9338 21.0261 22.1329 20.8571C22.0305 20.8302 21.902 20.7925 21.8375 20.708C21.8191 20.6811 21.8035 20.6525 21.7907 20.6225L21.7109 20.4486C21.6838 20.4472 21.6567 20.4514 21.6312 20.4611C21.6058 20.4708 21.5827 20.4856 21.5632 20.5048C21.529 20.5447 21.4923 20.5823 21.4534 20.6176C21.384 20.6702 21.2899 20.6846 21.2269 20.7448C21.2025 20.7706 21.1804 20.7985 21.1609 20.8283C21.1132 20.8915 21.0527 20.9437 20.9834 20.9814C20.9141 21.0191 20.8376 21.0414 20.7591 21.0469Z" fill="white"/>
<path d="M22.1511 20.0064C22.322 19.6918 22.3141 19.3147 22.3628 18.9594C22.3681 18.8653 22.4008 18.7749 22.4569 18.6995C22.5554 18.5872 22.7292 18.5857 22.8779 18.6001C22.9217 18.6051 22.9764 18.6259 22.9739 18.6702C22.9705 18.686 22.9628 18.7006 22.9518 18.7124C22.8076 18.9001 22.7229 19.1273 22.7085 19.3644C22.7858 19.4185 22.9055 19.3072 22.9799 19.3644C23.0291 19.4061 23.0064 19.4886 22.9769 19.5482C22.9083 19.6864 22.8375 19.8235 22.7647 19.9597C22.7065 20.0797 22.6306 20.1901 22.5396 20.2871C22.4771 20.3477 22.4037 20.3955 22.3402 20.4551C22.1924 20.5947 22.1033 20.792 21.9507 20.9281C21.9378 20.9422 21.9203 20.9512 21.9014 20.9535C21.882 20.9521 21.8637 20.9438 21.8497 20.9301C21.7735 20.8675 21.7102 20.7904 21.6636 20.703C21.6055 20.5947 21.6143 20.5629 21.7059 20.4864C21.8773 20.3497 22.0442 20.2031 22.1511 20.0064Z" fill="white"/>
<path d="M20.4733 20.8325C20.5028 20.8509 20.5393 20.8718 20.5718 20.8564C20.5851 20.8483 20.5964 20.8372 20.6048 20.8241C20.6611 20.7483 20.708 20.6658 20.7446 20.5786C20.7509 20.5663 20.7545 20.5527 20.755 20.5388C20.755 20.507 20.7269 20.4837 20.7008 20.4653C20.561 20.3753 20.4106 20.3032 20.2532 20.2506C20.1232 20.2009 19.9873 20.1577 19.8494 20.1701C19.7976 20.1736 19.747 20.1877 19.7007 20.2114C19.6544 20.2352 19.6134 20.2681 19.58 20.3083C19.4815 20.436 19.6465 20.4747 19.7499 20.5209C19.9892 20.6308 20.2483 20.6944 20.4733 20.8325Z" fill="white"/>
<path opacity="0.1" d="M20.3179 21.6774C20.3163 21.6887 20.3173 21.7003 20.3209 21.7112C20.3244 21.7221 20.3305 21.7319 20.3386 21.74C20.3529 21.6695 20.3342 21.5949 20.3489 21.5239C20.3706 21.417 20.4735 21.3365 20.4824 21.2292C20.2938 21.1919 20.3194 21.5621 20.3179 21.6774Z" fill="white"/>
<path opacity="0.2" d="M29.0006 17.793V18.2824L26.9983 18.4052L26.9377 17.9152L29.0006 17.793Z" fill="white"/>
<path d="M20.13 18.5819C20.2551 18.4791 20.1827 18.2634 20.2674 18.1253C20.3166 18.0497 20.3999 18.01 20.4816 17.9762C20.5803 17.9296 20.686 17.9001 20.7943 17.8887C20.8486 17.8835 20.9033 17.8906 20.9545 17.9096C21.0056 17.9286 21.0519 17.959 21.0898 17.9986C21.1218 18.0353 21.1434 18.0801 21.1735 18.1183C21.2107 18.163 21.2592 18.1966 21.3138 18.2157C21.3684 18.2347 21.4271 18.2385 21.4837 18.2266C21.5492 18.2117 21.6172 18.1616 21.6127 18.094C21.6053 18.0529 21.5845 18.0154 21.5536 17.9876L21.4128 17.8301C21.2528 17.6512 21.075 17.4614 20.8401 17.4167C20.6766 17.3854 20.5092 17.4296 20.3516 17.4828C20.2881 17.5041 20.2167 17.5359 20.199 17.601C20.1871 17.6458 20.2049 17.6945 20.1945 17.7397C20.1743 17.8296 20.0601 17.8599 20.0069 17.9355C19.9537 18.011 19.97 18.1004 19.9547 18.1839C19.9394 18.2674 19.8951 18.3489 19.8897 18.4354C19.8863 18.4875 19.9124 18.5844 19.9705 18.6033C20.0286 18.6222 20.0941 18.5198 20.13 18.5819Z" fill="white"/>
<path d="M21.5649 18.0241C21.5234 17.8055 21.4338 17.5991 21.3029 17.4199C21.1865 17.2525 21.0245 17.1227 20.8366 17.0462C20.7426 17.0092 20.6416 16.9941 20.541 17.0021C20.4405 17.0101 20.343 17.041 20.256 17.0924C20.1268 17.1855 20.0262 17.3135 19.9659 17.4616C19.8384 17.7389 19.7911 18.0778 19.9393 18.3442C19.9984 18.2716 20.0999 18.3044 20.1895 18.2781C20.3018 18.2458 20.3968 18.1702 20.5037 18.123C20.8262 17.9794 21.2202 18.0957 21.5649 18.0241Z" fill="white"/>
<path opacity="0.1" d="M20.0148 18.0071C20.0034 17.9177 19.9961 17.8138 20.0591 17.7502C20.0622 17.7463 20.0662 17.7432 20.0707 17.7412C20.0753 17.7391 20.0802 17.7381 20.0852 17.7383C20.0896 17.7397 20.0936 17.7421 20.0971 17.7452C20.1006 17.7482 20.1034 17.752 20.1054 17.7562C20.1418 17.8141 20.1727 17.8754 20.1979 17.9391C20.1612 17.9305 20.1229 17.9333 20.0877 17.947C20.0526 17.9608 20.0224 17.9848 20.001 18.0161" fill="white"/>
<path opacity="0.1" d="M21.1655 17.7548L21.1477 17.5774C21.1449 17.5628 21.1461 17.5477 21.1512 17.5337C21.1586 17.522 21.1701 17.5135 21.1834 17.5098C21.1966 17.5061 21.2108 17.5076 21.2231 17.5138C21.2473 17.5274 21.2673 17.5475 21.2807 17.572C21.3217 17.6355 21.3557 17.7033 21.3821 17.7742C21.3028 17.7588 21.2212 17.7598 21.1423 17.7772" fill="white"/>
<path opacity="0.1" d="M21.6063 24.957V25.3625L21.267 25.3854H19.4824V24.957H21.6063Z" fill="white"/>
<path d="M21.6063 24.9548V25.3832H19.4824L13.8401 18.251V17.9141H15.0229L21.6063 24.9548Z" fill="white"/>
<path opacity="0.1" d="M21.6063 24.9548V25.3832H19.4824L13.8401 18.251V17.9141H15.0229L21.6063 24.9548Z" fill="white"/>
<path opacity="0.1" d="M21.6063 24.9548V25.3832H19.4824L13.8401 18.251V17.9141L19.5129 24.9548H21.6063Z" fill="white"/>
<path d="M14.58 32.1058C14.5837 32.1259 14.5833 32.1467 14.5787 32.1666C14.5741 32.1866 14.5655 32.2054 14.5534 32.2219C14.5413 32.2383 14.5259 32.2521 14.5083 32.2623C14.4907 32.2725 14.4712 32.2789 14.451 32.2812C14.3141 32.3279 14.1688 32.3741 14.0718 32.48C13.9748 32.5858 13.9556 32.7821 14.0718 32.8681C14.1312 32.9042 14.1994 32.923 14.2688 32.9222C14.4919 32.9376 14.7243 32.9346 14.9267 32.8392C15.0715 32.7717 15.2079 32.6564 15.3669 32.6668C15.4492 32.6718 15.5368 32.7105 15.6102 32.6728C15.6836 32.635 15.7042 32.5297 15.7047 32.4417C15.7066 32.2581 15.6792 32.0754 15.6235 31.9006C15.6161 31.8767 15.3029 31.8583 15.2655 31.8509L14.8858 31.8012C14.8139 31.7917 14.6588 31.7371 14.6022 31.7977C14.5455 31.8583 14.58 32.0337 14.58 32.1058Z" fill="white"/>
<path d="M16.8454 30.8629C16.8615 30.9524 16.8876 31.0398 16.9232 31.1233C16.9759 31.2585 17.0434 31.4021 17.1724 31.4677C17.2896 31.5268 17.4334 31.5054 17.5526 31.4493C17.6023 31.4285 17.6459 31.3951 17.6791 31.3524C17.7176 31.2848 17.7347 31.2069 17.7284 31.1293C17.7284 30.937 17.7171 30.7382 17.6299 30.5673C17.555 30.4182 17.4245 30.29 17.4226 30.125L16.974 30.2125C16.95 30.2148 16.9271 30.2239 16.908 30.2388C16.8938 30.2539 16.8839 30.2726 16.8794 30.293C16.8315 30.4789 16.82 30.6725 16.8454 30.8629Z" fill="white"/>
<path d="M11.4884 26.1449C11.4697 26.3049 11.4776 26.4763 11.5603 26.6145C11.643 26.7526 11.8173 26.844 11.968 26.7889C11.9757 26.7869 11.983 26.7834 11.9893 26.7785C11.9957 26.7736 12.001 26.7675 12.0049 26.7606C12.009 26.7438 12.0067 26.7261 11.9985 26.7109C11.932 26.5317 11.9375 26.3334 12.0138 26.1583C12.0237 26.1354 12.0448 26.1086 12.068 26.1176C12.0777 26.1225 12.0855 26.1305 12.0901 26.1404C12.114 26.182 12.1259 26.2295 12.1246 26.2776C12.1177 26.3211 12.1163 26.3654 12.1207 26.4092C12.13 26.452 12.1753 26.4922 12.2147 26.4738C12.2261 26.4668 12.236 26.4575 12.2437 26.4464C12.2514 26.4354 12.2568 26.4229 12.2595 26.4097C12.3694 26.0892 12.3196 25.7389 12.2694 25.4035C12.2698 25.3958 12.2685 25.3881 12.2657 25.3809C12.2628 25.3738 12.2585 25.3673 12.2529 25.3621C12.2473 25.3568 12.2406 25.3529 12.2333 25.3505C12.2261 25.3481 12.2184 25.3474 12.2108 25.3483C11.9784 25.325 11.8513 25.2688 11.7184 25.487C11.6041 25.6708 11.4884 25.9238 11.4884 26.1449Z" fill="white"/>
<path d="M14.2056 25.3263C14.1366 25.6155 14.0672 25.9082 14.0627 26.2053C14.064 26.3904 14.0778 26.5752 14.1041 26.7584L14.1558 27.1887C14.1735 27.3338 14.1908 27.4784 14.2159 27.622C14.2319 27.696 14.2407 27.7714 14.242 27.8471C14.2372 27.9218 14.2255 27.9958 14.207 28.0683C14.1761 28.2204 14.1588 28.3751 14.1553 28.5304C14.1499 28.7789 14.1804 29.0273 14.1996 29.2758C14.238 29.7709 14.2322 30.2685 14.1824 30.7625C14.1625 30.8959 14.1912 31.032 14.2632 31.1457C14.2924 31.1815 14.3164 31.2213 14.3346 31.2639C14.3715 31.3777 14.2853 31.4915 14.2632 31.6083C14.249 31.6993 14.2712 31.7924 14.325 31.8669C14.3787 31.9414 14.4595 31.9914 14.5498 32.0058C14.9437 32.053 15.3485 32.0317 15.7035 32.2135C15.741 32.1032 15.6592 31.978 15.6966 31.8657C15.7203 31.7961 15.7853 31.7509 15.8296 31.6923C15.8891 31.6029 15.9188 31.4967 15.9143 31.3891C15.916 31.2487 15.8913 31.1093 15.8414 30.9782C15.7996 30.8689 15.7395 30.761 15.7429 30.6438C15.7429 30.5861 15.7631 30.5255 15.74 30.4723C15.7241 30.4418 15.7025 30.4146 15.6765 30.3923C15.5293 30.2296 15.4388 30.0229 15.4189 29.8035C15.3997 29.5858 15.4067 29.3666 15.4396 29.1505C15.4637 28.9448 15.4962 28.7277 15.6257 28.5672C15.5657 28.0805 15.601 27.5866 15.7296 27.1137C15.7424 27.07 15.7626 27.0193 15.807 27.0088C15.8246 27.007 15.8423 27.0095 15.8588 27.0161C15.8753 27.0226 15.8899 27.0331 15.9015 27.0466C15.9788 27.1197 16.0157 27.2255 16.0492 27.3269C16.0862 27.4367 16.1236 27.554 16.0955 27.6663C16.0837 27.716 16.0601 27.7597 16.0463 27.8074C16.0163 27.9032 16.0216 28.0068 16.061 28.0991C16.0803 28.1328 16.0924 28.1702 16.0965 28.2089C16.0919 28.2421 16.082 28.2744 16.067 28.3043C16.0487 28.3631 16.0429 28.4251 16.0499 28.4863C16.057 28.5475 16.0767 28.6066 16.1078 28.6596C16.1706 28.7651 16.248 28.861 16.3378 28.9443C16.2949 29.135 16.306 29.3341 16.3698 29.5188C16.3744 29.5271 16.3773 29.5362 16.3784 29.5457C16.3795 29.5552 16.3788 29.5647 16.3762 29.5739C16.3673 29.5928 16.3447 29.5998 16.327 29.6132C16.2777 29.6539 16.3083 29.7309 16.3412 29.7841C16.4317 29.93 16.5315 30.0698 16.6402 30.2025C16.7386 30.3213 16.7298 30.5504 16.8765 30.5931C16.9382 30.6065 17.002 30.6065 17.0636 30.5931C17.2084 30.5707 17.3699 30.5285 17.4409 30.3993C17.4699 30.3461 17.4817 30.2815 17.527 30.2418C17.5723 30.202 17.6309 30.1951 17.656 30.1474C17.6812 30.0997 17.6531 30.037 17.6615 29.9819C17.6698 29.9267 17.7176 29.8825 17.7329 29.8244C17.7693 29.6902 17.6142 29.5799 17.593 29.4427C17.5625 29.244 17.8107 29.0949 17.8003 28.8961C17.7787 28.4643 17.7649 28.0305 17.7427 27.5987C17.7149 27.2119 17.711 26.8237 17.7309 26.4364C17.7481 26.1954 17.7801 25.943 17.6925 25.7188C17.5664 25.4028 17.2188 25.2254 16.8824 25.1916C16.5461 25.1578 16.2107 25.2383 15.8774 25.291C15.3241 25.3771 14.7619 25.3889 14.2056 25.3263Z" fill="white"/>
<path d="M15.2051 20.5765C15.6408 20.5765 15.994 20.2201 15.994 19.7804C15.994 19.3408 15.6408 18.9844 15.2051 18.9844C14.7695 18.9844 14.4163 19.3408 14.4163 19.7804C14.4163 20.2201 14.7695 20.5765 15.2051 20.5765Z" fill="white"/>
<path d="M14.8841 20.7275C14.8573 20.7904 14.8122 20.8437 14.7548 20.8804C14.6974 20.917 14.6304 20.9352 14.5625 20.9327C14.534 21.0519 14.6024 21.1722 14.6807 21.2661C14.8433 21.457 15.0534 21.6007 15.2894 21.6824C15.5253 21.7641 15.7786 21.7807 16.0231 21.7307C16.1182 21.7135 16.2085 21.6755 16.2875 21.6194C16.3941 21.5296 16.4656 21.4046 16.4894 21.2666C16.5121 21.1296 16.5185 20.9903 16.5086 20.8517C16.5114 20.8243 16.5036 20.7969 16.487 20.7752C16.4673 20.7598 16.4429 20.7517 16.418 20.7523C16.2516 20.7374 16.0777 20.7309 15.9315 20.6484C15.7852 20.566 15.6813 20.3796 15.7518 20.2266C15.7404 20.2504 15.4528 20.2618 15.4149 20.2668C15.2963 20.2837 15.1776 20.3026 15.0594 20.3245C15.0026 20.3276 14.9465 20.3383 14.8925 20.3563C14.8211 20.3935 14.8476 20.3751 14.8644 20.4427C14.8895 20.5461 14.9264 20.6201 14.8841 20.7275Z" fill="white"/>
<path d="M15.4844 21.2122C15.3782 21.2134 15.2722 21.2016 15.1688 21.1769C15.0644 21.1523 14.9723 21.0904 14.9098 21.0025C14.8733 20.9469 14.8497 20.8768 14.7916 20.8455C14.6965 20.7958 14.5882 20.8798 14.5124 20.9568C14.4433 21.0328 14.3633 21.0978 14.275 21.1496C14.1696 21.2058 14.0465 21.2256 13.947 21.2917C13.8693 21.351 13.8026 21.4237 13.7501 21.5064L13.0523 22.4654C12.7721 22.851 12.5283 23.265 12.2787 23.6719C12.0625 24.0243 11.9492 24.4297 11.7862 24.8099C11.7733 24.8331 11.768 24.8599 11.771 24.8864C11.7769 24.9122 11.8079 24.9331 11.8296 24.9182C11.7562 24.9917 11.8207 25.117 11.8035 25.2203C11.7839 25.2926 11.743 25.3573 11.6863 25.4057C11.7947 25.3914 11.9047 25.3966 12.0113 25.4211C12.1214 25.4526 12.2254 25.503 12.3186 25.5702C12.3782 25.5607 12.3727 25.4539 12.4171 25.4141C12.4436 25.3908 12.483 25.3937 12.518 25.3868C12.6495 25.361 12.7017 25.2014 12.8026 25.1115C12.8868 25.0365 13.006 25.0121 13.0951 24.9416C13.2399 24.8268 13.2709 24.6225 13.3468 24.4531C13.4113 24.3095 13.5127 24.1843 13.5694 24.0372C13.6063 23.9418 13.624 23.8384 13.6767 23.7505C13.7609 23.6083 13.9195 23.5328 14.0706 23.4647C14.1662 23.4215 14.2676 23.3768 14.3705 23.3837C14.3651 23.6148 14.3361 23.8424 14.3858 24.068C14.403 24.1475 14.4272 24.225 14.4479 24.304C14.5419 24.6598 14.5641 25.0305 14.5685 25.3972C14.7948 25.345 15.0258 25.317 15.2579 25.3137C15.4406 25.3083 15.6228 25.3321 15.8055 25.3287C16.0222 25.3247 16.2364 25.2824 16.453 25.2675C16.6697 25.2526 16.8962 25.2675 17.0878 25.3669C17.0722 25.052 17.081 24.7363 17.1139 24.4228L17.1661 23.9288C17.1779 23.7853 17.1998 23.6429 17.2316 23.5025C17.2602 23.3892 17.3015 23.2799 17.333 23.1671C17.4438 22.7695 17.4236 22.3452 17.4025 21.9313C17.3916 21.7186 17.3104 21.5094 17.2148 21.32C17.1803 21.2497 17.1408 21.182 17.0967 21.1173C16.9812 20.9568 16.8274 20.8284 16.6495 20.7441C16.4716 20.6598 16.2754 20.6224 16.0793 20.6353C16.0542 20.6361 16.0295 20.6415 16.0064 20.6512C15.9648 20.6781 15.9324 20.7171 15.9133 20.763C15.8115 20.9478 15.6636 21.1026 15.4844 21.2122Z" fill="white"/>
<path d="M14.5113 20.0448C14.5334 19.9951 14.593 19.9767 14.6294 19.9369C14.6994 19.8614 14.6678 19.7407 14.6787 19.6388C14.6964 19.4897 14.819 19.365 14.9594 19.3118C15.1025 19.2655 15.2548 19.2557 15.4026 19.2835C15.4737 19.2887 15.5424 19.3118 15.6025 19.3506C15.6281 19.3695 15.6517 19.3938 15.6759 19.4112C15.7198 19.438 15.7725 19.4464 15.8225 19.4347C15.8726 19.4229 15.9161 19.3918 15.9437 19.3481C15.7694 19.1364 15.5764 18.9128 15.3115 18.8477C15.2206 18.829 15.128 18.8201 15.0352 18.8214C14.9126 18.8189 14.786 18.8169 14.6728 18.8641C14.5186 18.9282 14.4103 19.0758 14.3547 19.2348C14.306 19.396 14.28 19.5632 14.2773 19.7317C14.2673 19.8441 14.2673 19.9572 14.2773 20.0696C14.2964 20.2231 14.3529 20.3694 14.4418 20.4955C14.4538 20.515 14.4708 20.531 14.4911 20.5417C14.7156 20.6411 14.493 20.086 14.5113 20.0448Z" fill="white"/>
<path d="M15.9182 19.228C15.8911 18.994 15.7256 18.8007 15.5498 18.6452C15.4081 18.5103 15.2393 18.4078 15.0549 18.3445C14.8693 18.2894 14.6556 18.3013 14.4965 18.4131C14.3685 18.503 14.2872 18.6461 14.2247 18.7903C14.1425 18.9603 14.1018 19.1477 14.106 19.3369C14.1183 19.5247 14.2089 19.715 14.3704 19.8099C14.4285 19.7235 14.5295 19.6787 14.6265 19.6435C15.0493 19.4816 15.4805 19.3429 15.9182 19.228Z" fill="white"/>
<path opacity="0.1" d="M14.4246 19.1289C14.4404 19.1289 14.4507 19.1453 14.4586 19.1587C14.4987 19.2218 14.5332 19.2883 14.5615 19.3575C14.5039 19.3699 14.405 19.3839 14.3764 19.3327C14.3611 19.3068 14.3793 19.1264 14.4246 19.1289Z" fill="white"/>
<path opacity="0.1" d="M15.5471 19.0188C15.5353 19.0302 15.5215 19.0069 15.5215 18.99V18.7972C15.5212 18.7918 15.5224 18.7865 15.525 18.7818C15.527 18.7794 15.5295 18.7775 15.5323 18.7761C15.5351 18.7748 15.5381 18.774 15.5412 18.7738C15.5811 18.7694 15.6141 18.8036 15.6397 18.8364C15.6786 18.8896 15.7124 18.9463 15.7407 19.0059L15.5324 18.9994" fill="white"/>
<path d="M18.1466 22.2109C18.192 22.1675 18.2404 22.1275 18.2914 22.0912C18.4278 21.9992 18.5928 21.963 18.7459 21.9043C18.8991 21.8457 19.0547 21.7508 19.1143 21.5967C19.1441 21.5004 19.1538 21.3989 19.1428 21.2986C19.1443 21.2566 19.1369 21.2148 19.1212 21.1759C19.1024 21.1415 19.0757 21.1121 19.0434 21.0904C18.8356 20.9353 18.5568 20.9229 18.2988 20.9388C17.7299 20.9744 17.1723 21.1149 16.6536 21.3532C16.6262 21.3624 16.6021 21.3797 16.5846 21.4029C16.5745 21.4245 16.57 21.4482 16.5713 21.472C16.5622 21.6186 16.5811 21.7655 16.627 21.9048C16.6949 22.0817 16.8348 22.2243 16.8934 22.4047C16.92 22.4857 16.9289 22.5717 16.952 22.6532C16.971 22.7373 17.0203 22.8114 17.0904 22.8609C17.2849 22.9782 17.4686 22.8206 17.6035 22.6984L18.1466 22.2109Z" fill="white"/>
<path d="M15.5993 22.8995L15.3497 22.3499C15.3131 22.2737 15.2815 22.1952 15.2551 22.1149C15.2266 22.019 15.2128 21.9196 15.1862 21.8232C15.0985 21.5022 14.8774 21.2348 14.7696 20.9203C14.7628 20.8919 14.7489 20.8657 14.7292 20.8442C14.7135 20.833 14.6955 20.8254 14.6765 20.822C14.6575 20.8185 14.638 20.8194 14.6194 20.8244C14.4687 20.8507 14.351 20.9665 14.2131 21.0321C14.1491 21.0619 14.0802 21.0818 14.0162 21.1161C13.9842 21.1314 13.9558 21.1534 13.933 21.1808C13.9103 21.2081 13.8936 21.2401 13.8842 21.2746C13.8689 21.3506 13.9063 21.4237 13.9379 21.4977C14.0718 21.8028 14.1023 22.1437 14.1082 22.4776C14.1127 22.7022 14.1014 22.9432 13.9699 23.1236C13.7173 23.4714 13.8788 23.9823 13.9733 24.4032C13.9846 24.4528 13.9979 24.5065 14.0058 24.5592C14.0142 24.6251 14.0179 24.6915 14.0171 24.7579C14.0171 24.9811 14.0048 25.2111 13.9123 25.4134C14.0037 25.4625 14.1044 25.4913 14.2077 25.4979C14.4937 25.5346 14.7808 25.5605 15.069 25.5754C15.1593 25.5839 15.2504 25.5793 15.3393 25.5615C15.445 25.5326 15.5381 25.4691 15.604 25.3809C15.6699 25.2927 15.7048 25.1849 15.7032 25.0745C15.719 25.2121 15.7481 25.3617 15.847 25.4571C15.946 25.5525 16.0903 25.5669 16.2247 25.5744C16.6042 25.5947 16.9846 25.5839 17.3623 25.5421C17.3864 25.541 17.4101 25.5354 17.4322 25.5257C17.5051 25.4889 17.509 25.3875 17.5031 25.306C17.4923 25.1535 17.4809 25.0009 17.4627 24.8494C17.4473 24.7528 17.4394 24.6551 17.4391 24.5572C17.4466 24.4565 17.4631 24.3567 17.4883 24.259C17.5543 23.949 17.6065 23.6324 17.5844 23.3149C17.5756 23.2376 17.5725 23.1597 17.575 23.0819C17.5878 22.9064 17.6794 22.7395 17.6622 22.5651C17.6129 22.0522 17.573 21.526 17.4312 21.0311C17.4056 20.9426 17.3731 20.8477 17.2968 20.797C17.1983 20.7305 17.0599 20.7652 16.9471 20.723C16.8942 20.6982 16.8439 20.668 16.7969 20.6331C16.6949 20.5687 16.5779 20.5323 16.4577 20.5277C16.3671 20.5242 16.2661 20.5446 16.2114 20.6182C16.1861 20.6596 16.1694 20.7057 16.1622 20.7538C16.0908 21.0569 16.0071 21.3566 15.9234 21.6562L15.8431 21.9434L15.6279 22.7146C15.6067 22.7966 15.621 22.822 15.5993 22.8995Z" fill="white"/>
<path d="M16.8583 19.8906L21.6216 24.9418V25.3701H19.4977L15.9182 20.6559" fill="white"/>
<path opacity="0.1" d="M16.8583 19.8906L21.6216 24.9418V25.3701H19.4977L15.9182 20.6559" fill="white"/>
<path opacity="0.1" d="M15.994 20.5898L16.0093 20.5953L19.5283 24.9423H21.6216V25.3707H19.4977L15.9182 20.6564L15.994 20.5898Z" fill="white"/>
<path d="M16.5423 20.6959C16.3699 20.772 16.1784 20.8694 16.1267 21.0522C16.1164 21.0843 16.1142 21.1185 16.1202 21.1516C16.1328 21.1906 16.1569 21.2248 16.1891 21.2497C16.2214 21.2747 16.2604 21.2891 16.301 21.2912C16.3821 21.2932 16.4627 21.2783 16.5378 21.2475L17.5547 20.9086C17.5823 20.8997 17.6138 20.8863 17.6207 20.8589C17.6225 20.8417 17.619 20.8244 17.6109 20.8092C17.5793 20.7317 17.5483 20.5732 17.4823 20.519C17.4282 20.4753 17.3208 20.4907 17.2553 20.4917C17.0032 20.4937 16.7663 20.5966 16.5423 20.6959Z" fill="white"/>
<path d="M17.4489 20.947C17.6202 20.9465 17.7905 20.9732 17.9536 21.0261C18.1174 21.0797 18.2626 21.1798 18.3717 21.3143C18.4035 21.3519 18.4261 21.3964 18.4377 21.4445C18.4475 21.4941 18.608 21.524 18.5726 21.5578C18.6804 21.5404 18.6548 21.5915 18.7641 21.5905C18.8735 21.5896 18.9917 21.5612 19.0571 21.4733C19.1027 21.401 19.1229 21.3155 19.1148 21.2303C19.1162 21.1713 19.1051 21.1127 19.0823 21.0584C19.033 20.954 18.9198 20.8978 18.8154 20.8496L17.9359 20.4437C17.8849 20.4163 17.8301 20.3967 17.7734 20.3855C17.7256 20.381 17.6775 20.3821 17.6301 20.389L17.2317 20.4352C17.3188 20.4921 17.3897 20.5709 17.4375 20.6639C17.4852 20.7569 17.5082 20.8608 17.504 20.9654" fill="white"/>
</svg>
