<svg width="476" height="473" viewBox="0 0 476 473" fill="none" xmlns="http://www.w3.org/2000/svg">
<path d="M452.062 154.449C438.565 153.586 424.946 156.905 411.59 158.339C370.204 162.785 328.357 166.004 303.114 127.571C282.534 96.238 275.161 61.17 274.16 24.24C274.12 22.706 273.82 21.35 273.424 20.076C273.582 14.206 270.707 8.183 263.685 5.725C172.735 -26.078 165.436 96.903 183 156.963C180.483 157.149 177.973 157.253 175.454 157.347C175.352 154.752 174.941 152.195 174.575 149.62C174.489 149.069 174.395 148.518 174.306 147.965C174.352 148.108 174.342 147.741 174.276 146.724C174.213 145.076 173.844 143.504 173.309 142.024C173.101 137.931 171.28 133.843 167.207 130.837C128.708 102.359 81.9099 98.168 36.1089 107.996C34.1379 108.418 32.5259 109.164 31.1519 110.081C29.4259 110.865 27.7629 112.13 26.2439 114.041C3.01691 143.349 2.44891 177.843 20.7419 208.789C-8.21509 240.915 -6.51909 283.012 23.7219 314.733C17.0389 344.296 26.6139 370.86 49.3729 390.832C47.4179 405.735 48.7639 420.599 56.8549 433.975C66.1199 449.289 83.3519 457.262 100.285 460.812C101.631 461.594 103.18 462.223 105.068 462.534C134.328 467.327 163.66 471.131 193.288 472.553C194.728 472.624 196.017 472.461 197.228 472.198C197.962 472.173 198.686 472.173 199.46 472.046C237.966 465.633 276.473 459.077 314.588 450.617C350.631 442.614 385.882 430.061 422.672 425.851C438.145 424.074 473.594 426.324 473.93 403.58C475.047 328.664 475.118 253.749 475.123 178.831C475.123 177.071 474.793 175.538 474.32 174.108C469.82 160.513 468.728 155.516 452.062 154.449ZM383.336 402.907C321.542 422.417 257.956 433.497 194.159 444.14C193.862 444.11 193.603 444.029 193.296 444.013C166.781 442.743 140.564 439.524 114.374 435.274C113.178 434.649 111.86 434.116 110.281 433.822C99.7239 431.862 88.0419 428.881 81.4989 419.573C75.1289 410.504 76.3629 398.545 78.6299 388.353C80.2729 380.95 76.5279 375.359 71.3079 372.541C70.7919 372.028 70.3049 371.51 69.6899 371.048C50.2259 356.332 46.2509 335.873 53.6539 313.434C56.1849 305.761 52.3339 300.023 46.7129 297.449C22.3409 273.658 22.0339 245.669 47.6019 222.216C51.1689 218.946 52.3649 215.151 52.0019 211.553C52.7969 208.448 52.3249 204.931 49.8339 201.354C35.4559 180.702 29.5379 156.449 45.7769 135.104C81.2669 127.896 115.767 131.329 146.103 150.874C146.26 152.093 146.443 153.309 146.613 154.53C146.702 155.081 146.796 155.632 146.885 156.183C146.852 156.079 146.847 156.305 146.885 156.849C137.463 156.173 128.035 154.983 118.608 153.18C100.627 149.742 92.9569 177.244 111.022 180.698C148.995 187.957 186.664 187.941 224.441 179.507C242.399 175.498 234.782 147.985 216.855 151.989C215.113 152.377 213.364 152.664 211.622 153.012C200.26 117.715 191.437 21.805 245.873 30.633C249.804 112.426 286.857 193.176 375.585 189.241C370.116 260.65 376.585 331.543 385.111 402.529C384.525 402.648 383.957 402.709 383.336 402.907ZM445.501 392.614C434.578 393.315 423.66 394.031 412.737 394.752C404.602 325.88 398.753 257.063 404.221 187.761C418.297 185.971 432.404 184.785 446.576 184.631C446.573 253.96 446.441 323.29 445.501 392.614Z" fill="#28483D"/>
</svg>
